<svg width="25" height="24" viewBox="0 0 25 24" fill="none" xmlns="http://www.w3.org/2000/svg">
<path d="M11.8803 2.1L21.7793 3.515L23.1933 13.415L14.0013 22.607C13.8138 22.7945 13.5595 22.8998 13.2943 22.8998C13.0292 22.8998 12.7748 22.7945 12.5873 22.607L2.68732 12.707C2.49985 12.5195 2.39453 12.2652 2.39453 12C2.39453 11.7348 2.49985 11.4805 2.68732 11.293L11.8803 2.1ZM14.7083 10.586C14.8941 10.7717 15.1146 10.919 15.3573 11.0194C15.5999 11.1199 15.86 11.1716 16.1227 11.1716C16.3853 11.1715 16.6454 11.1197 16.888 11.0192C17.1307 10.9186 17.3511 10.7713 17.5368 10.5855C17.7225 10.3997 17.8698 10.1792 17.9703 9.93656C18.0707 9.69388 18.1224 9.4338 18.1224 9.17115C18.1223 8.9085 18.0705 8.64843 17.97 8.40579C17.8694 8.16315 17.7221 7.94269 17.5363 7.757C17.3506 7.57131 17.1301 7.42403 16.8874 7.32356C16.6447 7.22309 16.3846 7.1714 16.122 7.17145C15.5915 7.17154 15.0828 7.38235 14.7078 7.7575C14.3328 8.13265 14.1222 8.64141 14.1223 9.17185C14.1224 9.7023 14.3332 10.211 14.7083 10.586Z" fill="white"/>
</svg>
